# xmcd CD database file
#
# Track frame offsets:
#	150
#	14530
#	30827
#
# Disc length: 599 seconds
#
# Revision: 0
# Processed by: cddbd v1.5PL3 Copyright (c) Steve Scherf et al.
# Submitted via: CDex 1.50
#
DISCID=15025503
DTITLE=藤井　フミヤ - 女神（エロス）
DYEAR=1994
DGENRE=JPop
TTITLE0=女神（エロス）
TTITLE1=TRUE LOVE(acoustic version)
TTITLE2=女神（エロス）(ORIGINAL KARAOKE)
EXTD=YEAR: 1994
EXTT0=
EXTT1=
EXTT2=
PLAYORDER=
